<?xml version="1.0" encoding="utf-8"?>
<!-- Generator: Adobe Illustrator 19.1.0, SVG Export Plug-In . SVG Version: 6.00 Build 0)  -->
<svg version="1.1" id="Layer_1" xmlns="http://www.w3.org/2000/svg" xmlns:xlink="http://www.w3.org/1999/xlink" x="0px" y="0px"
	 viewBox="0 0 129.6 131.2" style="enable-background:new 0 0 129.6 131.2;" xml:space="preserve">
<style type="text/css">
	.st0{fill-rule:evenodd;clip-rule:evenodd;fill:#555759;}
	.st1{fill-rule:evenodd;clip-rule:evenodd;fill:#C7B000;}
	.st2{fill:none;stroke:#C7B000;stroke-width:2;stroke-miterlimit:10;}
	.st3{fill:#555759;}
</style>
<polygon class="st0" points="34.6,1.7 12.4,1.7 12.4,103.6 24.8,103.6 24.8,60.3 34.6,60.3 34.6,48.6 24.8,48.6 24.8,15 34.6,15 "/>
<polygon class="st0" points="41,103.6 41,1.7 53.4,1.7 53.4,44.7 53.4,57.7 53.4,103.6 "/>
<rect x="60.3" y="30" class="st0" width="12.4" height="73.7"/>
<rect x="78.5" y="1.7" class="st0" width="12.4" height="102"/>
<polygon class="st0" points="98.3,21.8 90.2,48.3 102.4,103.6 116.9,103.6 103.3,48.1 112.9,21.8 "/>
<path class="st1" d="M74,2.4L74,2.4c0-0.5,0-0.7,0-0.7l-0.2,0.2v0L74,1.7c-0.1,0-0.1,0.1-0.2,0.1v0l0,0
	C58.5,6.4,59.6,22.4,59.6,22.4l0.3-0.4l-0.3,0.4C73.1,18.4,74,5.5,74,2.4"/>
<line class="st2" x1="11.4" y1="114" x2="118.2" y2="113.8"/>
<g>
	<path class="st3" d="M11.5,122c0-0.1,0.1-0.2,0.2-0.2h0.4c0.1,0,0.2,0.1,0.2,0.2v3.3h4.5V122c0-0.1,0.1-0.2,0.2-0.2h0.4
		c0.1,0,0.2,0.1,0.2,0.2v7.4c0,0.1-0.1,0.2-0.2,0.2h-0.4c-0.1,0-0.2-0.1-0.2-0.2V126h-4.5v3.4c0,0.1-0.1,0.2-0.2,0.2h-0.4
		c-0.1,0-0.2-0.1-0.2-0.2V122z"/>
	<path class="st3" d="M23.4,121.7c2.2,0,4,1.8,4,4s-1.8,4-4,4c-2.2,0-4-1.8-4-4S21.2,121.7,23.4,121.7z M23.4,128.9
		c1.8,0,3.2-1.4,3.2-3.2c0-1.8-1.5-3.2-3.2-3.2s-3.2,1.5-3.2,3.2C20.2,127.5,21.7,128.9,23.4,128.9z"/>
	<path class="st3" d="M28.7,128.4c0.1-0.1,0.1-0.1,0.2-0.2c0.1-0.1,0.2-0.2,0.4-0.1c0.1,0.1,0.9,0.8,1.9,0.8c0.9,0,1.5-0.6,1.5-1.2
		c0-0.8-0.7-1.2-1.9-1.8c-1.2-0.5-2-1-2-2.3c0-0.8,0.6-2,2.4-2c1.1,0,1.9,0.6,1.9,0.6c0.1,0,0.2,0.2,0.1,0.4c0,0.1-0.1,0.1-0.1,0.2
		c-0.1,0.2-0.2,0.2-0.4,0.1c-0.1,0-0.8-0.5-1.5-0.5c-1.2,0-1.5,0.8-1.5,1.2c0,0.7,0.6,1.2,1.5,1.6c1.5,0.6,2.5,1.2,2.5,2.5
		c0,1.2-1.1,2-2.4,2c-1.3,0-2.2-0.8-2.4-0.9C28.6,128.7,28.5,128.6,28.7,128.4z"/>
	<path class="st3" d="M35.1,122c0-0.1,0.1-0.2,0.2-0.2h2.5c1.4,0,2.5,1.1,2.5,2.5c0,1.4-1.1,2.5-2.5,2.5h-1.8v2.6
		c0,0.1-0.1,0.2-0.2,0.2h-0.4c-0.1,0-0.2-0.1-0.2-0.2V122z M37.7,125.9c0.9,0,1.7-0.7,1.7-1.7c0-0.9-0.8-1.6-1.7-1.6h-1.8v3.3H37.7z
		"/>
	<path class="st3" d="M41.7,122c0-0.1,0.1-0.2,0.2-0.2h0.4c0.1,0,0.2,0.1,0.2,0.2v7.4c0,0.1-0.1,0.2-0.2,0.2h-0.4
		c-0.1,0-0.2-0.1-0.2-0.2V122z"/>
	<path class="st3" d="M46,122.5H44c-0.1,0-0.2-0.1-0.2-0.2V122c0-0.1,0.1-0.2,0.2-0.2h4.7c0.1,0,0.2,0.1,0.2,0.2v0.3
		c0,0.1-0.1,0.2-0.2,0.2h-1.9v6.8c0,0.1-0.1,0.2-0.2,0.2h-0.4c-0.1,0-0.2-0.1-0.2-0.2V122.5z"/>
	<path class="st3" d="M48.7,129.3l3.4-7.5c0-0.1,0.1-0.1,0.2-0.1h0.1c0.1,0,0.2,0.1,0.2,0.1l3.4,7.5c0.1,0.1,0,0.3-0.2,0.3h-0.4
		c-0.1,0-0.2-0.1-0.2-0.1l-0.8-1.8h-4l-0.8,1.8c0,0.1-0.1,0.1-0.2,0.1h-0.4C48.7,129.6,48.6,129.4,48.7,129.3z M54,126.9
		c-0.5-1.2-1.1-2.4-1.6-3.7h-0.1l-1.6,3.7H54z"/>
	<path class="st3" d="M57.2,122c0-0.1,0.1-0.2,0.2-0.2h0.4c0.1,0,0.2,0.1,0.2,0.2v6.8h3.2c0.1,0,0.2,0.1,0.2,0.2v0.3
		c0,0.1-0.1,0.2-0.2,0.2h-3.9c-0.1,0-0.2-0.1-0.2-0.2V122z"/>
	<path class="st3" d="M62.6,122c0-0.1,0.1-0.2,0.2-0.2h0.4c0.1,0,0.2,0.1,0.2,0.2v7.4c0,0.1-0.1,0.2-0.2,0.2h-0.4
		c-0.1,0-0.2-0.1-0.2-0.2V122z"/>
	<path class="st3" d="M66.9,122.5H65c-0.1,0-0.2-0.1-0.2-0.2V122c0-0.1,0.1-0.2,0.2-0.2h4.7c0.1,0,0.2,0.1,0.2,0.2v0.3
		c0,0.1-0.1,0.2-0.2,0.2h-1.9v6.8c0,0.1-0.1,0.2-0.2,0.2h-0.4c-0.1,0-0.2-0.1-0.2-0.2V122.5z"/>
	<path class="st3" d="M73.1,125.8l-2.7-3.7c-0.1-0.1,0-0.3,0.2-0.3h0.5c0.1,0,0.1,0.1,0.2,0.1l2.2,3.1l2.2-3.1c0,0,0.1-0.1,0.2-0.1
		h0.5c0.2,0,0.3,0.2,0.2,0.3l-2.7,3.7v3.6c0,0.1-0.1,0.2-0.2,0.2h-0.4c-0.1,0-0.2-0.1-0.2-0.2V125.8z"/>
	<path class="st3" d="M83.7,121.7c1.1,0,1.9,0.4,2.7,1c0.1,0.1,0.1,0.2,0,0.3c-0.1,0.1-0.2,0.2-0.3,0.3c-0.1,0.1-0.2,0.1-0.3,0
		c-0.6-0.5-1.4-0.9-2.1-0.9c-1.8,0-3.1,1.5-3.1,3.2c0,1.7,1.3,3.2,3.1,3.2c1.2,0,2-0.5,2-0.5v-1.6h-1.3c-0.1,0-0.2-0.1-0.2-0.2v-0.4
		c0-0.1,0.1-0.2,0.2-0.2h1.9c0.1,0,0.2,0.1,0.2,0.2v2.6c0,0.1,0,0.1-0.1,0.2c0,0-1.1,0.7-2.8,0.7c-2.2,0-4-1.8-4-4
		S81.5,121.7,83.7,121.7z"/>
	<path class="st3" d="M88.4,122c0-0.1,0.1-0.2,0.2-0.2h2.9c1.3,0,2.4,1,2.4,2.4c0,1-0.7,1.9-1.6,2.3l1.5,2.8c0.1,0.1,0,0.3-0.2,0.3
		h-0.6c-0.1,0-0.2-0.1-0.2-0.1l-1.5-3h-2.1v2.8c0,0.1-0.1,0.2-0.2,0.2h-0.4c-0.1,0-0.2-0.1-0.2-0.2V122z M91.5,125.8
		c0.9,0,1.6-0.7,1.6-1.6c0-0.8-0.7-1.6-1.6-1.6h-2.2v3.2H91.5z"/>
	<path class="st3" d="M99.2,121.7c2.2,0,4,1.8,4,4s-1.8,4-4,4c-2.2,0-4-1.8-4-4S97,121.7,99.2,121.7z M99.2,128.9
		c1.8,0,3.2-1.4,3.2-3.2c0-1.8-1.5-3.2-3.2-3.2c-1.8,0-3.2,1.5-3.2,3.2C96,127.5,97.4,128.9,99.2,128.9z"/>
	<path class="st3" d="M104.8,122c0-0.1,0.1-0.2,0.2-0.2h0.4c0.1,0,0.2,0.1,0.2,0.2v4.6c0,1.3,0.8,2.3,2.1,2.3c1.3,0,2.1-1,2.1-2.2
		V122c0-0.1,0.1-0.2,0.2-0.2h0.4c0.1,0,0.2,0.1,0.2,0.2v4.7c0,1.7-1.2,3-3,3c-1.7,0-2.9-1.3-2.9-3V122z"/>
	<path class="st3" d="M112.9,122c0-0.1,0.1-0.2,0.2-0.2h2.5c1.4,0,2.5,1.1,2.5,2.5c0,1.4-1.1,2.5-2.5,2.5h-1.8v2.6
		c0,0.1-0.1,0.2-0.2,0.2h-0.4c-0.1,0-0.2-0.1-0.2-0.2V122z M115.5,125.9c0.9,0,1.7-0.7,1.7-1.7c0-0.9-0.8-1.6-1.7-1.6h-1.8v3.3
		H115.5z"/>
</g>
</svg>
